<svg width="800" height="600" viewBox="0 0 800 600" fill="none" xmlns="http://www.w3.org/2000/svg">
    <rect width="800" height="600" fill="#020617"/>
    
    {/* Charts */}
    {/* Throughput */}
    <rect x="50" y="50" width="340" height="250" rx="8" fill="#0F172A" stroke="#1E293B"/>
    <text x="70" y="85" fill="#94A3B8" font-family="monospace" font-size="14" font-weight="bold">TRAFFIC THROUGHPUT</text>
    <path d="M 70 250 L 120 200 L 170 230 L 220 180 L 270 210 L 320 150 L 370 170" stroke="#3B82F6" stroke-width="2" fill="none"/>
    <text x="320" y="140" fill="#3B82F6" font-family="monospace" font-size="12">12.4k req/s</text>

    {/* Latency */}
    <rect x="410" y="50" width="340" height="250" rx="8" fill="#0F172A" stroke="#1E293B"/>
    <text x="430" y="85" fill="#94A3B8" font-family="monospace" font-size="14" font-weight="bold">P99 LATENCY</text>
    <path d="M 430 250 L 480 240 L 530 245 L 580 235 L 630 242 L 680 238 L 730 240" stroke="#10B981" stroke-width="2" fill="none"/>
    <text x="680" y="230" fill="#10B981" font-family="monospace" font-size="12">42ms</text>

    {/* Log Console */}
    <rect x="50" y="320" width="700" height="230" rx="8" fill="#000000" stroke="#1E293B"/>
    <text x="70" y="355" fill="#4ade80" font-family="monospace" font-size="12">
        <tspan x="70" dy="1.2em">[10:42:01] INF: Routing packet 0x4f2a3 to node 12</tspan>
        <tspan x="70" dy="1.2em">[10:42:01] INF: LLM cache hit (92%)</tspan>
        <tspan x="70" dy="1.2em">[10:42:02] INF: Authentication sequence validated [ACH-772]</tspan>
        <tspan x="70" dy="1.2em" fill="#94A3B8">[10:42:02] DBG: Memory usage at 14.2%</tspan>
        <tspan x="70" dy="1.2em">[10:42:03] INF: VIN lookup completed (FA6P8C...)</tspan>
    </text>
</svg>
